# xmcd CD database file
#
# Track frame offsets:
#	150
#	21777
#	46658
#	63328
#	83008
#	110215
#	126460
#	145936
#
# Disc length: 2260 seconds
#
# Revision: 0
# Processed by: cddbd v1.5.2PL0 Copyright (c) Steve Scherf et al.
# Submitted via: CDex 1.70beta2
#
DISCID=6b08d208
DTITLE=Pat Metheny - Bright size life
DYEAR=1900
DGENRE=Jazz
TTITLE0=Pat Metheny - Bright size life
TTITLE1=Pat Metheny - Sirabhorn
TTITLE2=Pat Metheny - Unity Village
TTITLE3=Pat Metheny - Misouri uncompromissed
TTITLE4=Pat Metheny - Midwestern nights dreams
TTITLE5=Pat Metheny - Unquity road
TTITLE6=Pat Metheny - Omaha celebration
TTITLE7=Pat Metheny - Round trip - Broadway blues
EXTD=
EXTT0=
EXTT1=
EXTT2=
EXTT3=
EXTT4=
EXTT5=
EXTT6=
EXTT7=
PLAYORDER=
